<svg width="17" height="16" viewBox="0 0 17 16" fill="none" xmlns="http://www.w3.org/2000/svg">
<path fill-rule="evenodd" clip-rule="evenodd" d="M6.70016 2C5.6393 2 4.62188 2.42143 3.87174 3.17158C3.12159 3.92172 2.70016 4.93914 2.70016 6C2.70016 7.06087 3.12159 8.07829 3.87174 8.82843C4.62188 9.57858 5.6393 10 6.70016 10C7.76103 10 8.77845 9.57858 9.52859 8.82843C10.2787 8.07829 10.7002 7.06087 10.7002 6C10.7002 4.93914 10.2787 3.92172 9.52859 3.17158C8.77845 2.42143 7.76103 2 6.70016 2ZM0.700165 6C0.700044 5.05571 0.922807 4.12472 1.35034 3.28274C1.77787 2.44077 2.39809 1.7116 3.16056 1.15453C3.92303 0.597457 4.80623 0.228216 5.73831 0.0768364C6.67039 -0.0745427 7.62505 -0.00378543 8.52463 0.283354C9.42421 0.570493 10.2433 1.06591 10.9153 1.7293C11.5873 2.39269 12.0933 3.20534 12.392 4.10114C12.6907 4.99693 12.7738 5.9506 12.6345 6.88456C12.4952 7.81852 12.1373 8.7064 11.5902 9.476L16.4072 14.293C16.5893 14.4816 16.6901 14.7342 16.6878 14.9964C16.6856 15.2586 16.5804 15.5094 16.395 15.6948C16.2096 15.8802 15.9588 15.9854 15.6966 15.9877C15.4344 15.99 15.1818 15.8892 14.9932 15.707L10.1772 10.891C9.27953 11.5293 8.22351 11.9082 7.12484 11.9861C6.02617 12.0641 4.92724 11.8381 3.94846 11.333C2.96969 10.8278 2.14885 10.063 1.57589 9.12235C1.00293 8.18168 0.699951 7.10144 0.700165 6Z" fill="#71717A"/>
</svg>
