<svg width="14" height="14" viewBox="0 0 14 14" fill="none" xmlns="http://www.w3.org/2000/svg">
<path fill-rule="evenodd" clip-rule="evenodd" d="M6.99998 13.4C8.69736 13.4 10.3252 12.7257 11.5255 11.5255C12.7257 10.3253 13.4 8.69739 13.4 7.00001C13.4 5.30262 12.7257 3.67476 11.5255 2.47452C10.3252 1.27429 8.69736 0.600006 6.99998 0.600006C5.30259 0.600006 3.67472 1.27429 2.47449 2.47452C1.27426 3.67476 0.599976 5.30262 0.599976 7.00001C0.599976 8.69739 1.27426 10.3253 2.47449 11.5255C3.67472 12.7257 5.30259 13.4 6.99998 13.4ZM9.96558 5.96561C10.1113 5.81472 10.1919 5.61264 10.1901 5.40288C10.1883 5.19313 10.1042 4.99248 9.95583 4.84415C9.8075 4.69582 9.60685 4.61169 9.3971 4.60987C9.18734 4.60804 8.98526 4.68868 8.83438 4.83441L6.19998 7.46881L5.16558 6.43441C5.01469 6.28868 4.81261 6.20804 4.60285 6.20987C4.3931 6.21169 4.19245 6.29582 4.04412 6.44415C3.89579 6.59248 3.81166 6.79313 3.80984 7.00288C3.80801 7.21264 3.88865 7.41472 4.03438 7.56561L5.63438 9.16561C5.7844 9.31558 5.98784 9.39983 6.19998 9.39983C6.41211 9.39983 6.61555 9.31558 6.76557 9.16561L9.96558 5.96561Z" fill="#71717A"/>
</svg>
