<svg width="13" height="12" viewBox="0 0 13 12" fill="none" xmlns="http://www.w3.org/2000/svg">
<path d="M10.3335 0.666687H9.66687H3.38021C2.66687 0.666687 2.06021 1.11335 1.92021 1.74002L1.02687 5.74002C0.846875 6.56669 1.54687 7.33335 2.48687 7.33335H5.30688L4.29354 10.6267C4.08021 11.3134 4.64021 12 5.41354 12C5.80021 12 6.17354 11.84 6.42688 11.5667L10.3335 7.33335H13.0002V0.666687H10.3335ZM5.93354 11.1134C5.80687 11.2534 5.61354 11.3334 5.41354 11.3334C5.24021 11.3334 5.08021 11.26 4.99354 11.1334C4.94687 11.0667 4.89354 10.96 4.93354 10.82L5.94688 7.52669L6.21354 6.66669H5.30688H2.48687C2.21354 6.66669 1.95354 6.55335 1.80021 6.36002C1.72021 6.26002 1.63354 6.09335 1.68021 5.88002L2.57354 1.88002C2.64021 1.56669 2.98021 1.33335 3.38021 1.33335H9.66687V7.07335L5.93354 11.1134ZM12.3335 6.66669H10.3335V1.33335H12.3335V6.66669Z" fill="white"/>
</svg>
